<svg fill="#000000" xmlns="http://www.w3.org/2000/svg"  viewBox="0 0 128 128" width="64px" height="64px"><path d="M 64.746094 1.0039062 C 64.189309 0.99226807 63.630938 0.99351562 63.070312 1.0097656 C 45.390313 1.4997656 31 16.579141 31 34.619141 L 31 49 C 31 56.17 36.83 62 44 62 L 71 62 L 71 71.070312 C 71 72.160313 70.580547 73.179219 69.810547 73.949219 L 66.880859 76.880859 C 62.950859 80.810859 62.950859 87.199141 66.880859 91.119141 C 68.470859 92.709141 68.470859 95.290859 66.880859 96.880859 L 66.119141 97.640625 C 64.419141 99.340625 63.480469 101.59977 63.480469 104.00977 C 63.480469 106.40977 64.419141 108.68086 66.119141 110.38086 C 67.329141 111.59086 68 113.20016 68 114.91016 C 68 118.44016 65.119844 121.32031 61.589844 121.32031 L 61 121.32031 C 58.79 121.32031 57 119.53031 57 117.32031 L 57 76 C 57 74.34 55.66 73 54 73 C 52.34 73 51 74.34 51 76 L 51 117.31055 C 51 122.82055 55.49 127.31055 61 127.31055 L 61.589844 127.31055 C 68.429844 127.31055 74 121.74039 74 114.90039 C 74 111.59039 72.709141 108.47086 70.369141 106.13086 C 69.799141 105.56086 69.490234 104.80977 69.490234 104.00977 C 69.490234 103.20977 69.799141 102.45063 70.369141 101.89062 L 71.130859 101.13086 C 75.060859 97.200859 75.060859 90.810625 71.130859 86.890625 C 69.540859 85.300625 69.540859 82.720859 71.130859 81.130859 L 74.060547 78.199219 C 75.960547 76.299219 77.009766 73.770078 77.009766 71.080078 L 77.009766 62 L 83.910156 62 C 91.040156 62 96.870156 56.200078 96.910156 49.080078 L 97 34.019531 L 97 34 C 97 25.01 93.449766 16.609609 87.009766 10.349609 C 80.972266 4.4714844 73.097864 1.178479 64.746094 1.0039062 z M 64 7 C 71.08 7 77.740313 9.7003906 82.820312 14.650391 C 88.090312 19.780391 90.990234 26.650234 90.990234 33.990234 L 90.900391 49.039062 C 90.880391 52.879062 87.740391 56 83.900391 56 L 44 56 C 40.14 56 37 52.86 37 49 L 37 34.619141 C 37 19.789141 48.770234 7.4097656 63.240234 7.0097656 C 63.500234 6.9997656 63.75 7 64 7 z M 56.410156 23.269531 C 54.750156 23.269531 53.410156 24.609531 53.410156 26.269531 C 53.410156 27.929531 54.750156 29.269531 56.410156 29.269531 L 70.080078 29.269531 C 71.740078 29.269531 73.080078 27.929531 73.080078 26.269531 C 73.080078 24.609531 71.740078 23.269531 70.080078 23.269531 L 56.410156 23.269531 z"/></svg>